<?xml version="1.0" encoding="UTF-8"?>
<svg width="26px" height="22px" viewBox="0 0 26 22" version="1.1" xmlns="http://www.w3.org/2000/svg" xmlns:xlink="http://www.w3.org/1999/xlink">
    <!-- Generator: Sketch 46.2 (44496) - http://www.bohemiancoding.com/sketch -->
    <title>今日上新 copy</title>
    <desc>Created with Sketch.</desc>
    <defs>
        <linearGradient x1="50%" y1="100%" x2="50%" y2="0%" id="linearGradient-1">
            <stop stop-color="#FE9C88" offset="0%"></stop>
            <stop stop-color="#F5D961" offset="100%"></stop>
        </linearGradient>
        <linearGradient x1="50%" y1="0%" x2="50%" y2="100%" id="linearGradient-2">
            <stop stop-color="#FBD249" offset="0%"></stop>
            <stop stop-color="#F5A623" offset="100%"></stop>
        </linearGradient>
    </defs>
    <g id="专题讲座" stroke="none" stroke-width="1" fill="none" fill-rule="evenodd">
        <g id="讲堂首页" transform="translate(-585.000000, -428.000000)">
            <g id="今日上新-copy" transform="translate(585.000000, 428.000000)">
                <path d="M23.7132931,7.39009994 L23.7132931,5.47955457 C23.7132931,4.62660265 23.3811359,3.82454695 22.7778901,3.22068271 C22.1746444,2.61813929 21.3732666,2.28599304 20.5202866,2.28599304 L18.6090397,2.28599304 L17.2590786,0.93671494 C16.6558108,0.332850701 15.8544111,0 15.0001101,0 C14.145567,0 13.3441893,0.332850701 12.7422864,0.935372083 L11.3902779,2.28733588 L9.47973552,2.28733588 C7.71959728,2.28733588 6.28670696,3.72033297 6.28670696,5.48111754 L6.28670696,7.39073832 L4.93540297,8.74135928 C4.33215722,9.34458511 4,10.1466408 4,10.9997689 C4,11.8527208 4.33286169,12.6554589 4.93540297,13.2580023 L6.28670694,14.6085792 L6.28670694,16.5204455 C6.28670694,17.3735735 6.61886416,18.1747927 7.22142747,18.7786789 C7.82467323,19.3819047 8.62589686,19.714051 9.4797355,19.714051 L11.3909824,19.714051 L12.7409435,21.0632851 C13.3441892,21.6672153 14.1455669,22 15.0001101,22 C15.8544331,22 16.6558108,21.6671933 17.2577136,21.0646279 L18.6090176,19.7133686 L20.5202645,19.7133686 C22.2804027,19.7133686 23.7132931,18.2805476 23.7132931,16.519763 L23.7132931,14.6092837 L25.064597,13.2580243 C25.6678428,12.6547985 26,11.8527428 26,10.9997909 C26,10.1466188 25.6671824,9.34458514 25.0645971,8.74135928 L23.7132931,7.39009994 Z" id="Path" fill="url(#linearGradient-1)" opacity="0.299365942"></path>
                <path d="M21.0645971,8.74135928 L19.7132931,7.39009994 L19.7132931,5.47955457 C19.7132931,4.62660265 19.3811359,3.82454695 18.7778901,3.22068271 C18.1746444,2.61813929 17.3732666,2.28599304 16.5202866,2.28599304 L14.6090397,2.28599304 L13.2590786,0.93671494 C12.6558108,0.332850701 11.8544111,0 11.0001101,0 C10.145567,0 9.34418926,0.332850701 8.74228638,0.935372083 L7.39027794,2.28733588 L5.47973552,2.28733588 C3.71959728,2.28733588 2.28670696,3.72033297 2.28670696,5.48111754 L2.28670696,7.39073832 L0.935402973,8.74135928 C0.332157219,9.34458511 0,10.1466408 0,10.9997689 C0,11.8527208 0.332861693,12.6554589 0.935402973,13.2580023 L2.28670694,14.6085792 L2.28670694,16.5204455 C2.28670694,17.3735735 2.61886416,18.1747927 3.22142747,18.7786789 C3.82467323,19.3819047 4.62589686,19.714051 5.4797355,19.714051 L7.39098239,19.714051 L8.74094346,21.0632851 C9.34418921,21.6672153 10.1455669,22 11.0001101,22 C11.8544331,22 12.6558108,21.6671933 13.2577136,21.0646279 L14.6090176,19.7133686 L16.5202645,19.7133686 C18.2804027,19.7133686 19.7132931,18.2805476 19.7132931,16.519763 L19.7132931,14.6092837 L21.064597,13.2580243 C21.6678428,12.6547985 22,11.8527428 22,10.9997909 C22,10.1466188 21.6671824,9.34458514 21.0645971,8.74135928 L21.0645971,8.74135928 Z M14.9987461,15.8702807 L12.9017763,15.8702807 L11.0147424,12.4624401 C10.4907252,11.5189347 9.91334247,10.378469 9.48120658,9.3425369 L9.44202481,9.35632844 C9.49382313,10.522379 9.52183811,11.7677308 9.52183811,13.2090243 L9.52183811,15.8691053 L7.68628912,15.8691053 L7.68628908,7.03480606 L10.020583,7.03480606 L11.8546431,10.2721724 C12.3789738,11.2033359 12.9033435,12.3034849 13.297238,13.3000014 L13.3364198,13.3000014 C13.2051217,12.134186 13.1659399,10.9404348 13.1659399,9.61656526 L13.1659399,7.03480606 L15,7.03480606 L15,15.8703199 L14.9987461,15.8703199 L14.9987461,15.8702807 Z" id="Shape" fill="url(#linearGradient-2)" fill-rule="nonzero"></path>
            </g>
        </g>
    </g>
</svg>