<?xml version="1.0" encoding="utf-8"?>
<!-- Generator: Adobe Illustrator 22.0.0, SVG Export Plug-In . SVG Version: 6.00 Build 0)  -->
<svg version="1.1" id="Layer_1" xmlns="http://www.w3.org/2000/svg" xmlns:xlink="http://www.w3.org/1999/xlink" x="0px" y="0px"
	 viewBox="0 0 280.5 82.9" style="enable-background:new 0 0 280.5 82.9;" xml:space="preserve">
<style type="text/css">
	.st0{fill:#FFFFFF;}
</style>
<title>logo</title>
<g>
	<path class="st0" d="M20.1,31.7c0-4.4-2.5-6.2-6.6-7.8c-3-1.1-5.3-1.6-5.3-3.7c0-1.6,1.2-2.4,3.2-2.4c2.3,0,4.3,0.8,5.8,1.9
		l2.2-4.3v-0.7c-2.3-1.5-5.6-2.2-8.6-2.2c-5.6,0-10,2.4-10,8c0,4.3,2.8,6.1,6.2,7.6c3,1.3,5.6,1.7,5.6,4c0,2.1-1.9,2.8-3.7,2.8
		c-2.4,0-4.9-1.4-6.6-3v0L0,36.1v0.7C2.9,39,5.9,40,9.7,40C15.6,40,20.1,37.5,20.1,31.7z"/>
	<path class="st0" d="M56.3,40c3,0,5.2-1.6,7.1-3.3l0.2,0.1c-0.1,1.5-0.3,4-0.3,4.5c0,2.8-1.8,4.5-5,4.5c-2.3,0-4.8-0.9-6.7-2.2H51
		l-1.9,4.9c2.9,1.8,6.6,2.7,10.1,2.7c6.2,0,11.8-3.2,11.8-10.7V18.3v0c0-1.6,0.1-4.4,0.2-5l-6.2-0.2l-0.6,0.5l-0.5,1.9l-0.2,0.1
		c-1.9-1.8-4.3-3.1-7.2-3.1c-6.6,0-9.3,6.7-9.3,13.5C47.1,33.1,48.9,40,56.3,40z M59.1,18.3c1.5,0,3.1,0.8,4.3,2.2
		c0,0.6-0.1,10.9-0.1,11.5c-1.2,1.6-3.1,2.8-4.6,2.8c-3.4,0-3.6-5.4-3.6-8.6C55,23.2,55.5,18.3,59.1,18.3z"/>
	<path class="st0" d="M43.8,36.2v-0.7l-3.1-3.5C39.1,33.8,37.2,35,35,35c-4.3,0-5.6-3.8-5.6-6.7c0.5,0,13.1,0.1,15.2,0.1
		c0.3-0.9,0.5-2.3,0.5-3.2c0-7.1-3-12.6-11.3-12.6c-8.7,0-12,6-12,13.5c0,7.7,3.6,13.9,12.4,13.9C38.2,40,41.2,38.5,43.8,36.2z
		 M33.8,18c2.9,0,4,2.1,4,6.2c-0.3,0-7.8,0.2-8.4,0.2C29.6,20,31.1,18,33.8,18z"/>
	<path class="st0" d="M176.2,5.5h-7.1L168.5,6c0,2.5,0.1,4.9,0.1,7.4c-1.7-0.1-2.7-0.1-3.2-0.1l-0.1,5.5c0.5,0,1.6,0,3.3-0.1
		c-0.1,5.1-0.1,12.2-0.1,12.8c0,3.8,0.5,7.8,7.2,7.8h0h4.5l0.5-0.5l-0.1-4.9h-2.1c-2.4,0-2.4-0.5-2.4-3.3c0-0.5,0-6.9-0.1-11.9
		c1.9,0.1,4.3,0.1,4.9,0.1l0.1-5.5c-0.5,0-3.1,0-5,0.1C176.2,9.2,176.2,6,176.2,5.5z"/>
	<path class="st0" d="M126.2,12.6c-8.7,0-12,6-12,13.5c0,7.7,3.6,13.9,12.4,13.9c4,0,7-1.5,9.6-3.8v-0.7l-3.1-3.5
		c-1.6,1.7-3.5,2.9-5.7,2.9c-4.3,0-5.6-3.8-5.6-6.7c0.5,0,13.1,0.1,15.2,0.1c0.3-0.9,0.5-2.3,0.5-3.2
		C137.6,18.1,134.6,12.6,126.2,12.6z M121.9,24.4c0.2-4.3,1.7-6.4,4.3-6.4c2.9,0,4,2.1,4,6.2C130,24.2,122.5,24.4,121.9,24.4z"/>
	<path class="st0" d="M156.6,12.7c-2.9,0-6.4,1.4-8.8,3.2l-0.1-0.1l-0.4-2.1l-0.6-0.5l-6.4,0.2c0.1,1.1,0.2,4.8,0.2,6.7v19.3h7.7
		l0-19.1c1.5-1,3.4-1.9,4.7-1.9c1.8,0,2.5,1,2.5,3.8c0,0.5-0.2,16.7-0.2,17.2h7.7c0-0.5,0.2-18.3,0.2-18.9
		C163,14.9,160.2,12.7,156.6,12.7z"/>
	<path class="st0" d="M104.9,12.7c-2.8,0-6.2,1.3-8.8,3.3c-1-2.3-3.1-3.3-5.2-3.3c-2.8,0-6,1.3-8.3,3.2l-0.1-0.1L82,13.7l-0.6-0.5
		l-6.4,0.2c0.1,1.1,0.2,4.9,0.2,6.7v19.3h7.7l-0.1-19.1c1.3-1.1,3.1-1.9,4.4-1.9c1.6,0,2.2,1,2.2,3.8c0,0.5-0.1,16.7-0.1,17.2h7.4
		V20.1c1.3-1.1,3.1-1.8,4.3-1.8c1.7,0,2.4,1,2.4,3.8c0,0.5-0.2,16.7-0.2,17.2h7.7c0-0.5,0.2-18.3,0.2-18.9
		C111.1,14.9,108.4,12.7,104.9,12.7z"/>
	<path class="st0" d="M250.4,13.9L250.4,13.9L250.4,13.9l-0.5-0.5h-7.1l0.1,18.9c-1.3,1.4-3.5,2.5-5.1,2.5c-1.9,0-2.6-1.9-2.6-3.8
		c0-0.7,0.2-16.4,0.2-17l-0.5-0.5h-7.1c0,0.5-0.2,18.4-0.2,18.9c0,5.6,2.9,7.8,6.8,7.8c3,0,5.9-0.8,8.8-3.5l0.2,0.1l0.6,2.2l0.5,0.5
		h6c-0.1-1.1-0.2-4.1-0.2-6.3V13.9z"/>
	<path class="st0" d="M223.6,20.7c0-5.8-3.5-8.1-8.9-8.1c-4.1,0-8.3,0.7-12.1,2.2v0.7l1.7,4.4c1.8-0.7,4.9-1.8,8.3-1.8
		c1.9,0,3.5,0.6,3.5,3v1.7c-7.4,0.4-14.6,0.9-14.6,9.3c0,2.9,1,8,6.8,8c3.2,0,5.8-1.3,8.1-3.4l0.2,0.1l0.6,2.1l0.5,0.5h6
		c-0.1-1.1-0.2-4.1-0.2-6.3V20.7z M215.9,32.4c-1.6,1.7-3.4,2.4-4.7,2.4c-2.1,0-2.5-1.8-2.5-3.7c0-4.1,2.2-4.2,7.3-4.3l0.1,0.1
		C216.1,27.2,215.9,32.1,215.9,32.4z"/>
	<path class="st0" d="M262.3,1.3L262.3,1.3L262.3,1.3L262.3,1.3l-0.5-0.5l-7.3,0.2c0.1,1.1,0.2,4.2,0.2,6.3V33
		c0,2.1,0.1,5.2,0.2,6.3h7.7c-0.1-1.1-0.2-4.2-0.2-6.3V1.3z"/>
	<path class="st0" d="M280.4,18.8l0.1-5.5c-0.5,0-3.1,0-5,0.1c0.1-4.2,0.1-7.4,0.1-7.9h-7.1L268,6c0,2.5,0.1,4.9,0.1,7.4
		c-1.7-0.1-2.7-0.1-3.2-0.1l-0.1,5.5c0.5,0,1.6,0,3.3-0.1C268,23.9,268,31,268,31.6c0,3.8,0.5,7.8,7.2,7.8h0h4.5l0.5-0.5l-0.1-4.9
		H278c-2.4,0-2.4-0.5-2.4-3.3c0-0.5,0-6.9-0.1-11.9C277.4,18.8,279.8,18.8,280.4,18.8z"/>
	<path class="st0" d="M197.5,5.6c0.9,0,1.8,0.3,2.7,0.8l1.6-4.4V1.2c-2.1-0.9-4.1-1.2-6.1-1.2c-4.6,0-8.2,2.3-8.2,8.5
		c0,0.2,0.1,4.7,0.1,4.9c-1.4-0.1-2.9-0.1-3.3-0.1l-0.1,5.5c0.4,0,1.9,0,3.4-0.1c-0.1,5.1-0.2,20-0.2,20.5h7.7
		c0-0.5,0-15.4-0.1-20.5c1.6,0.1,4.7,0.1,5.1,0.1l0-5.5c-0.4,0-3.5,0-5.1,0.1c0-0.2-0.1-3.1-0.1-4.1C195,6.4,196,5.6,197.5,5.6z"/>
	<path class="st0" d="M15.1,71.7h9.6v-2.8h-11c0.2-1.1,0.3-2.3,0.4-3.6v-0.7h9v-2.8H18c0.9-1.4,1.6-3,2.2-4.8l-2.8-0.8
		c-0.8,2.1-1.6,4-2.6,5.6H9.2l1.6-0.8c-1-1.6-2-3.2-3-4.6l-2.7,1.3c1,1.2,1.9,2.6,2.8,4.1H2.1v2.8h9v0.7c-0.1,1.3-0.2,2.5-0.4,3.6
		H0.5v2.8h9.4c-0.3,0.8-0.8,1.6-1.2,2.3c-1.5,2.1-4.4,3.9-8.7,5.3l1.6,2.5c4.3-1.3,7.4-3.3,9.3-5.8c0.7-0.9,1.3-2,1.8-3.2
		c1.6,3.8,5.3,6.9,11.1,9.3l1.7-2.8C19.9,77.4,16.5,74.9,15.1,71.7z"/>
	<path class="st0" d="M42.3,59.9h8.8v-2.8H29.9v2.8h9.5v6.5H28.1v2.9h11.2v8.6c0,0.8-0.4,1.1-1.3,1.1c-1.3,0-2.7-0.1-4.1-0.2
		l0.6,2.8h4.5c2.1,0,3.2-1,3.2-3v-9.4H53v-2.9H42.3V59.9z"/>
	<path class="st0" d="M73.5,56.2l-2.5,1.4c1.6,5.5,4.4,9.9,8.4,13.4l2.1-2.4C77.6,65.3,75,61.2,73.5,56.2z"/>
	<path class="st0" d="M63,56.4c-1.6,5.2-4,9.3-7.4,12.5l2.3,2c3.2-3.1,5.8-7.5,7.8-13.4L63,56.4z"/>
	<path class="st0" d="M71.3,72.1c0.9,1.5,1.8,3.1,2.7,4.8c-3.6,0.6-7.3,0.9-11,1.2c2.3-3.2,4.5-7,6.7-11.5l-2.9-1
		c-3.6,8-6.4,12.2-8.3,12.7l0.5,2.8c5.9-0.4,11.3-0.9,16.1-1.6c0.4,0.8,0.7,1.7,1.1,2.6l2.7-1.2c-1.4-3.4-3.1-6.6-5.1-9.6L71.3,72.1
		z"/>
	<rect x="84" y="62.6" class="st0" width="17.8" height="2.7"/>
	<path class="st0" d="M85.5,59.8h18.6v17.8c0,1-0.3,1.5-0.9,1.5l-4-0.1l0.8,2.8h3.9c2.1,0,3.2-1.1,3.2-3.4V57.1H85.5V59.8z"/>
	<path class="st0" d="M99.3,67.9h-13v9.3h13V67.9z M96.5,74.6h-7.4v-4.1h7.4V74.6z"/>
</g>
</svg>
